<svg xmlns="http://www.w3.org/2000/svg" viewBox="0 0 357.32 181.84"><g id="Layer_2" data-name="Layer 2"><g id="Layer_1-2" data-name="Layer 1"><path d="M53.67,104.38s6.53-47.7,57.14-40.44c0,0-5.81-59.81,58.85-63.93,0,0,46-2.18,58.35,50.61,0,0,21.8-16.71,44.56-1.21s13.32,44.07,13.32,44.07,28.09-16.6,52.43,1.79a47.9,47.9,0,0,1,17.2,27c3.28,13.3,3.93,33.25-14.45,47.77A50.32,50.32,0,0,1,310,180.47l-268.1,1.37a45.33,45.33,0,0,1-22-5.28A36.36,36.36,0,0,1,1.17,152.23,43.25,43.25,0,0,1,7,118.44C13.93,108.16,27.51,97.84,53.67,104.38Z"/></g></g></svg>