<?xml version="1.0" encoding="utf-8"?>
<!-- Generator: Adobe Illustrator 25.1.0, SVG Export Plug-In . SVG Version: 6.00 Build 0)  -->
<svg version="1.1" id="Layer_1" xmlns="http://www.w3.org/2000/svg" xmlns:xlink="http://www.w3.org/1999/xlink" x="0px" y="0px"
	 viewBox="0 0 800 800" style="enable-background:new 0 0 800 800;" xml:space="preserve">
<style type="text/css">
	.st0{display:none;}
</style>
<path class="st0" d="M328.5,331.6c0,0,5.5-74.4,81.9-74.5c75.4-0.1,81.2,80.8,81.2,80.8s61.5-13.3,74.5,54.5
	c0,0,42.4-23.3,64.5,24.5c2.9,6.3,7.4,41.7-24.4,54.1c-6,2.3-12.4,3.3-18.9,3.3H277.8c-10.5,0-20.8-2.7-29.6-8.4
	c-8.9-5.8-17.8-15.3-21.1-31.2c-3.3-15.7,0.3-32.4,11.1-44.3c7.4-8.2,19.1-15.4,37.3-15.1c0,0-6.7-22.2,12.2-39.3
	C306.6,319,328.5,331.6,328.5,331.6z"/>
<path d="M280.8,383.4c0,0,6.5-47.7,57.1-40.4c0,0-5.8-59.8,58.8-63.9c0,0,46-2.2,58.4,50.6c0,0,21.8-16.7,44.6-1.2
	c22.8,15.5,13.3,44.1,13.3,44.1s28.1-16.6,52.4,1.8c8.7,6.6,14.6,16.3,17.2,27c3.3,13.3,3.9,33.3-14.4,47.8
	c-8.8,6.9-19.8,10.4-31.1,10.5L269,460.8c-7.6,0-15.3-1.6-22-5.3c-7.7-4.2-15.8-11.5-18.8-24.3c-2.7-11.6-0.7-23.9,5.9-33.8
	C241,387.1,254.6,376.8,280.8,383.4z"/>
</svg>
